# This file uses centimeters as units for non-parametric coordinates.

v -8.424852 24.426147 6.381430
v -4.082452 26.310211 9.156713
v 0.000000 26.788544 9.802193
v 4.082452 26.310211 9.156713
v 8.424852 24.426147 6.381430
v -8.208156 23.509918 7.274992
v -4.602482 24.550537 9.708414
v 0.000000 24.895752 10.492725
v 4.602482 24.550537 9.708414
v 8.208156 23.509918 7.274992
v -8.047310 22.579926 8.096510
v -5.326699 22.915344 10.002643
v 0.000000 23.034531 10.931677
v 5.326699 22.915344 10.002643
v 8.047310 22.579926 8.096510
v -9.052458 21.211288 7.283449
v -7.973958 21.813080 8.647699
v -6.302006 22.019577 9.852588
v -4.411472 21.954376 10.589315
v -2.343657 21.772324 10.950562
v 9.052458 21.211288 7.283449
v 7.973958 21.813080 8.647699
v 6.302006 22.019577 9.852588
v 4.411472 21.954376 10.589315
v 2.343657 21.772324 10.950562
v 0.000000 20.274445 10.938559
v -8.410706 17.955521 6.983824
v -7.360543 19.113953 8.045715
v -4.885316 19.472183 9.160683
v -2.856857 18.355103 9.308751
v -3.596618 16.291245 9.239798
v -5.591395 16.530731 9.187166
v -7.390072 17.135757 8.259243
v 8.410706 17.955521 6.983824
v 7.360543 19.113953 8.045715
v 4.885316 19.472183 9.160683
v 2.856857 18.355103 9.308751
v 3.596618 16.291245 9.239798
v 5.591395 16.530731 9.187166
v 7.390072 17.135757 8.259243
v -0.857275 16.341309 10.398646
v 0.000000 16.817703 10.545341
v 0.857275 16.341309 10.398646
v -0.861310 14.878647 11.447660
v 0.000000 15.035553 11.535828
v 0.861310 14.878647 11.447660
v -1.969818 13.138412 12.600850
v 0.000000 13.672073 14.014996
v 1.969818 13.138412 12.600850
v -8.797132 15.460342 7.636532
v -7.556849 14.808884 8.945265
v -5.705304 14.663895 9.857994
v -3.444880 14.323151 10.670446
v -8.794696 12.711548 6.571216
v -7.719805 12.209229 8.490870
v -6.055013 12.839996 10.153833
v -4.175389 13.058975 10.993013
v -7.150752 9.518326 5.162663
v -6.753390 9.741058 7.421756
v -5.910678 10.294205 9.336517
v -4.773083 10.984360 10.466909
v 8.797132 15.460342 7.636532
v 7.556849 14.808884 8.945265
v 5.705304 14.663895 9.857994
v 3.444880 14.323151 10.670446
v 8.794696 12.711548 6.571216
v 7.719805 12.209229 8.490870
v 6.055013 12.839996 10.153833
v 4.175389 13.058975 10.993013
v 7.150752 9.518326 5.162663
v 6.753390 9.741058 7.421756
v 5.910678 10.294205 9.336517
v 4.773083 10.984360 10.466909
v -1.873742 11.919342 12.010309
v 1.873742 11.919342 12.010309
v -3.295065 10.201263 10.185259
v -2.458341 10.445328 11.337759
v -1.502694 10.665268 12.062011
v 0.000000 10.622620 12.395697
v 1.502694 10.665268 12.062011
v 2.458341 10.445328 11.337759
v 3.295065 10.201263 10.185259
v -2.415105 9.898178 11.043503
v -1.438361 9.652466 11.621344
v 0.000000 9.478714 11.922676
v 1.438361 9.652466 11.621344
v 2.415105 9.898178 11.043503
v -3.995363 9.857635 10.343756
v -2.886132 8.613708 10.502532
v -1.171026 7.848251 11.033843
v 1.171026 7.848251 11.033843
v 2.886132 8.613708 10.502532
v 3.995363 9.857635 10.343756
v -5.155760 8.761093 8.844201
v -3.407098 7.680328 9.823682
v -1.370847 6.608215 10.665031
v 1.370847 6.608215 10.665031
v 3.407098 7.680328 9.823682
v 5.155760 8.761093 8.844201
vn 0.185420 0.336784 0.923145
vn 0.185420 0.336784 0.923145
vn 0.185420 0.336784 0.923145
vn -0.185420 0.336784 0.923145
vn -0.185420 0.336784 0.923145
vn -0.185420 0.336784 0.923145
vn -0.532459 0.274600 0.800677
vn 0.171499 0.172316 0.969998
vn 0.706770 0.074571 0.703502
vn 0.731381 -0.023214 0.681574
vn 0.761211 -0.234935 0.604453
vn 0.737583 -0.051690 0.673275
vn 0.471250 -0.865803 0.168253
vn 0.753256 -0.628329 0.194443
vn 0.833409 -0.516169 0.197483
vn 0.486208 0.391408 0.781282
vn 0.592655 0.456144 0.663847
vn 0.399841 0.379716 0.834232
vn 0.182740 0.342894 0.921428
vn -0.706771 0.074571 0.703502
vn -0.706771 0.074571 0.703502
vn -0.706771 0.074571 0.703502
vn -0.570415 -0.332256 0.751154
vn -0.568003 -0.346354 0.746600
vn -0.582892 -0.239396 0.776483
vn -0.875416 -0.029457 0.482472
vn -0.875416 -0.029457 0.482472
vn -0.875416 -0.029457 0.482472
vn -0.761211 -0.234935 0.604453
vn -0.761211 -0.234935 0.604453
vn -0.761211 -0.234935 0.604453
vn 0.514539 -0.056324 0.855615
vn 0.416934 0.222872 0.881189
vn 0.390565 0.252330 0.885318
vn 0.841346 0.208274 0.498757
vn 0.841346 0.208274 0.498757
vn 0.841346 0.208274 0.498757
vn 0.075737 -0.990928 0.111021
vn 0.640095 -0.115933 0.759498
vn 0.669014 0.037979 0.742279
vn 0.587852 -0.188277 0.786754
vn 0.692256 0.211562 0.689945
vn 0.650723 0.284895 0.703843
vn 0.632759 0.260359 0.729266
vn -0.556687 -0.403739 0.726013
vn -0.841346 0.208275 0.498757
vn -0.841346 0.208275 0.498757
vn -0.841346 0.208275 0.498757
vn -0.122746 0.251771 0.959971
vn 0.015169 0.333509 0.942625
vn 0.049537 0.589760 0.806058
vn -0.688414 -0.082798 0.720577
vn -0.688414 -0.082798 0.720577
vn -0.688414 -0.082798 0.720576
vn -0.627311 -0.270070 0.730440
vn -0.627311 -0.270070 0.730440
vn -0.627311 -0.270070 0.730440
vn -0.287556 0.339377 0.895620
vn -0.272266 0.340064 0.900127
vn -0.310990 0.195578 0.930072
vn -0.412701 0.247687 0.876544
vn -0.474781 0.268703 0.838082
vn -0.416934 0.222872 0.881189
vn -0.624460 0.240174 0.743214
vn -0.410362 0.157603 0.898201
vn -0.587852 -0.188277 0.786754
vn -0.587852 -0.188277 0.786754
vn -0.587852 -0.188277 0.786754
vn -0.751837 0.081843 0.654250
vn -0.423055 0.107804 0.899668
vn -0.058769 0.110105 0.992181
vn -0.143890 0.281370 0.948750
vn 0.000000 0.014961 0.999888
vn 0.021756 0.232223 0.972419
vn 0.173437 0.243464 0.954277
vn -0.021470 0.243444 0.969677
vn 0.171840 0.247672 0.953483
vn -0.214611 -0.145872 0.965745
vn 0.000000 -0.008014 0.999968
vn -0.186580 -0.299430 0.935697
vn 0.818348 -0.466082 0.336265
vn 0.818348 -0.466082 0.336265
vn 0.818348 -0.466082 0.336265
vn 0.805446 -0.052694 0.590322
vn 0.875416 -0.029457 0.482472
vn 0.779952 -0.059996 0.622957
vn 0.688414 -0.082798 0.720577
vn 0.272831 0.019382 0.961867
vn 0.354690 -0.307535 0.882960
vn 0.239887 0.329110 0.913313
vn 0.190769 -0.338269 0.921510
vn 0.141619 0.277176 0.950325
vn 0.181661 -0.128920 0.974874
vn 0.166498 0.393417 0.904158
vn 0.582784 0.471344 0.661965
vn 0.589867 0.388614 0.707839
vn 0.677831 -0.303409 0.669693
vn 0.677831 -0.303409 0.669693
vn 0.677831 -0.303409 0.669693
vn 0.808539 0.290489 0.511743
vn 0.808847 0.290219 0.511409
vn 0.789361 0.306744 0.531806
vn 0.586991 0.213034 0.781062
vn 0.549744 0.479442 0.684045
vn 0.555813 -0.203192 0.806093
vn 0.549694 0.478229 0.684934
vn -0.884187 -0.213913 -0.415276
vn 0.300333 0.079360 0.950527
vn 0.428364 0.103291 0.897683
vn 0.423055 0.107804 0.899668
vn -0.015658 0.337281 0.941274
vn -0.015658 0.337281 0.941274
vn -0.015658 0.337281 0.941274
vn 0.375715 0.305975 0.874767
vn 0.396069 0.331821 0.856168
vn 0.377041 0.307652 0.873608
vn 0.360997 0.287433 0.887166
vn -0.737648 -0.528143 0.420644
vn -0.403455 -0.816296 0.413382
vn -0.572050 -0.685826 0.449892
vn -0.471250 -0.865803 0.168253
vn -0.753256 -0.628329 0.194443
vn -0.075737 -0.990928 0.111021
vn -0.795882 -0.474515 0.376041
vn -0.818348 -0.466082 0.336265
vn -0.833409 -0.516169 0.197483
vn -0.417496 0.368440 0.830632
vn -0.399841 0.379716 0.834232
vn -0.610283 0.395547 0.686365
vn -0.579761 0.494460 0.647601
vn -0.579761 0.494460 0.647601
vn -0.579761 0.494460 0.647601
vn -0.342226 -0.418785 0.841130
vn -0.342226 -0.418785 0.841130
vn -0.342226 -0.418785 0.841130
vn -0.324115 -0.411606 0.851781
vn -0.324115 -0.411606 0.851781
vn -0.324115 -0.411606 0.851781
vn -0.252990 0.069417 0.964975
vn 0.266093 0.187690 0.945498
vn 0.106601 -0.112381 0.987931
vn 0.190105 0.040035 0.980947
vn -0.478246 -0.406273 0.778603
vn -0.587261 -0.277410 0.760374
vn -0.546281 -0.347678 0.762035
vn -0.258230 0.240519 0.935664
vn -0.190104 0.040035 0.980947
vn -0.106600 -0.112381 0.987931
vn 0.029122 -0.022949 0.999312
vn 0.029122 -0.022949 0.999312
vn 0.029122 -0.022949 0.999312
vn 0.191800 -0.401471 0.895563
vn 0.413188 -0.147983 0.898541
vn 0.244595 -0.389819 0.887814
vn 0.356553 -0.236735 0.903785
vn 0.388981 0.108862 0.914791
vn 0.388981 0.108862 0.914791
vn 0.388981 0.108862 0.914791
vn 0.488769 -0.013211 0.872313
vn -0.551416 0.477361 0.684154
vn -0.551830 0.477152 0.683966
vn -0.550763 0.477690 0.684450
vn 0.884190 -0.213905 -0.415274
vn -0.808847 0.290219 0.511409
vn -0.808847 0.290219 0.511409
vn -0.808847 0.290219 0.511409
vn -0.677831 -0.303408 0.669693
vn -0.677831 -0.303408 0.669693
vn -0.677831 -0.303408 0.669693
vn -0.533640 -0.297814 0.791540
vn -0.533640 -0.297814 0.791540
vn -0.533640 -0.297814 0.791540
vn -0.578273 0.416313 0.701629
vn -0.576447 0.420526 0.700619
vn -0.547852 0.481950 0.683800
vn -0.589867 0.388614 0.707839
vn -0.347004 0.225311 0.910397
vn -0.347004 0.225311 0.910397
vn -0.347004 0.225311 0.910397
vn -0.171442 0.264383 0.949057
vn -0.171840 0.247672 0.953483
vn -0.117969 0.433168 0.893560
vn -0.117969 0.433168 0.893560
vn -0.117969 0.433168 0.893560
vn -0.294151 0.073597 0.952921
vn -0.059969 0.023380 0.997926
vn -0.388981 0.108862 0.914791
vn -0.250397 -0.418721 0.872911
vn -0.191801 -0.401471 0.895563
vn -0.223358 -0.410943 0.883876
vn -0.300073 -0.432169 0.850404
vn -0.413188 -0.147983 0.898541
vn -0.488769 -0.013211 0.872313
vn -0.393347 -0.117901 0.911799
vn -0.393347 -0.117901 0.911799
vn -0.393347 -0.117901 0.911799
vn -0.587140 0.129871 0.799000
vn -0.587869 -0.035582 0.808174
vn -0.582531 0.193013 0.789559
vn -0.527103 0.482996 0.699198
vn -0.262146 0.378039 0.887900
vn -0.262146 0.378039 0.887900
vn -0.262146 0.378039 0.887900
vn -0.418955 0.223095 0.880174
vn -0.418955 0.223095 0.880174
vn -0.418955 0.223095 0.880174
vn 0.000000 -0.285079 0.958504
vn 0.000000 -0.285079 0.958504
vn 0.000000 -0.285079 0.958504
vn -0.414578 -0.344191 0.842412
vn -0.412500 -0.336742 0.846433
vn -0.417383 -0.354382 0.836782
vn -0.421048 -0.367962 0.829049
vn -0.456949 -0.185126 0.870015
vn -0.456949 -0.185126 0.870015
vn -0.456949 -0.185126 0.870015
vn 0.508694 -0.348718 0.787163
vn 0.523755 -0.260514 0.811057
vn 0.568003 -0.346354 0.746600
vn 0.556687 -0.403739 0.726013
vn 0.736667 -0.490224 0.465836
vn 0.736667 -0.490224 0.465836
vn 0.736667 -0.490224 0.465836
vn 0.610756 -0.273224 0.743186
vn 0.627311 -0.270070 0.730440
vn 0.403455 -0.816296 0.413382
vn 0.403455 -0.816296 0.413382
vn 0.403455 -0.816296 0.413382
vn -0.342848 -0.431284 0.834535
vn -0.399829 -0.424928 0.812141
vn -0.310211 -0.434143 0.845747
vn -0.342924 0.660837 0.667606
vn -0.342924 0.660837 0.667606
vn -0.342924 0.660837 0.667606
vn -0.340429 0.541858 0.768439
vn -0.342715 0.538992 0.769438
vn -0.346782 0.533858 0.771192
vn -0.333904 0.549962 0.765539
vn 0.252990 0.069417 0.964975
vn 0.059969 0.023380 0.997926
vn 0.477996 -0.467760 0.743452
vn 0.360223 -0.280308 0.889757
vn 0.360223 -0.280308 0.889757
vn 0.360223 -0.280308 0.889757
vn 0.310657 -0.428909 0.848251
vn 0.300073 -0.432169 0.850404
vn 0.449857 -0.229605 0.863082
vn 0.456950 -0.185126 0.870015
vn 0.000000 -0.285078 0.958504
vn 0.194662 0.709236 0.677563
vn 0.194662 0.709236 0.677563
vn 0.194662 0.709236 0.677563
vn -0.110317 0.222027 0.968780
vn -0.110317 0.222027 0.968780
vn -0.110317 0.222027 0.968780
vn 0.362121 -0.321407 0.874966
vn 0.310211 -0.434143 0.845747
vn 0.334769 -0.383054 0.860929
vn 0.512913 -0.214078 0.831319
vn 0.363168 0.151438 0.919334
vn 0.587140 0.129871 0.799000
vn 0.540789 0.354399 0.762855
vn 0.587869 -0.035582 0.808174
vn 0.437855 0.577528 0.689017
vn 0.202108 0.565609 0.799524
vn 0.202108 0.565609 0.799524
vn 0.202108 0.565609 0.799524
vn 0.262146 0.378039 0.887900
vn -0.344997 0.097694 0.933506
vn 0.110318 0.222027 0.968780
vn -0.507367 0.041328 0.860739
vn -0.206882 -0.868360 0.450723
vn -0.274036 -0.557800 0.783430
vn -0.194661 0.709236 0.677563
vn -0.255264 0.534242 0.805870
vn -0.186083 0.572962 0.798177
vn 0.386864 0.447969 0.806015
vn 0.452761 -0.301277 0.839190
vn 0.412500 -0.336743 0.846433
vn 0.439996 -0.298835 0.846819
vn 0.129144 -0.946950 0.294293
vn 0.129144 -0.946950 0.294293
vn 0.129144 -0.946949 0.294293
vn 0.403540 -0.542092 0.737083
vn 0.403541 -0.542091 0.737083
vn 0.403540 -0.542091 0.737083
vn 0.391296 -0.249035 0.885929
vn 0.549087 -0.245211 0.798984
vn 0.577897 -0.137823 0.804388
vn 0.553535 -0.230343 0.800338
vn 0.505113 -0.371108 0.779192
vn 0.284689 0.559205 0.778615
vn 0.323268 0.552099 0.768560
vn 0.186083 0.572962 0.798177
vn 0.333904 0.549962 0.765539
vn 0.346782 0.533858 0.771192
vn 0.346782 0.533858 0.771192
vn 0.346782 0.533858 0.771192
vn 0.437194 0.673477 0.596062
vn 0.587415 0.515861 0.623563
vn 0.452622 -0.417387 0.787986
vn -0.431634 0.743581 0.510665
vn -0.424209 0.756449 0.497827
vn -0.541731 0.676058 0.499473
vn 0.000000 0.876225 0.481902
vn 0.204536 0.857701 0.471714
vn -0.452622 -0.417387 0.787985
vn 0.000000 -0.752831 0.658214
vn 0.000000 -0.752831 0.658214
vn 0.000000 -0.752831 0.658214
vn -0.022304 0.255065 0.966667
vn -0.064623 0.197345 0.978202
vn -0.217368 -0.024084 0.975793
vn 0.000000 0.284886 0.958562
vn 0.217369 -0.024084 0.975793
vn 0.217369 -0.024084 0.975792
vn 0.217369 -0.024084 0.975792
vn -0.223850 -0.383340 0.896070
vn -0.209398 -0.401277 0.891700
vn -0.220043 -0.388099 0.894964
vn -0.536303 -0.208538 0.817857
vn -0.540177 -0.286041 0.791448
vn -0.540361 -0.364331 0.758468
vn -0.531675 -0.155656 0.832522
vn -0.704678 -0.039941 0.708402
vn -0.428700 -0.285493 0.857152
vn -0.570248 -0.169268 0.803844
vn -0.444258 -0.220056 0.868453
vn -0.427407 -0.770201 0.473406
vn -0.710081 -0.376204 0.595193
vn -0.473150 -0.445984 0.759755
vn 0.716988 -0.161298 0.678167
vn 0.711619 -0.094824 0.696137
vn 0.710081 -0.376204 0.595193
vn 0.537927 -0.233358 0.810049
vn 0.537228 -0.432028 0.724388
vn 0.704678 -0.039941 0.708402
vn 0.233974 -0.400352 0.885988
vn 0.233974 -0.400352 0.885988
vn 0.233974 -0.400352 0.885988
vn 0.211179 -0.373513 0.903267
vn 0.211179 -0.373513 0.903267
vn 0.211179 -0.373513 0.903267
vn -0.233152 -0.371600 0.898640
vn 0.000000 -0.406572 0.913619
vn 0.073647 -0.436046 0.896906
vn 0.231671 -0.332068 0.914363
vn -0.231671 -0.332068 0.914363
vn -0.073647 -0.436046 0.896906
f 8//1 4//2 3//3
f 8//4 3//5 2//6
f 50//7 27//8 16//9
f 63//10 66//11 62//12
f 71//13 70//14 66//15
f 9//16 5//17 4//18
f 9//16 4//18 8//19
f 21//20 34//21 62//22
f 89//23 94//24 95//25
f 51//26 54//27 55//28
f 51//29 50//30 54//31
f 68//32 63//33 64//34
f 93//35 99//36 70//37
f 93//38 70//14 71//13
f 35//39 34//40 21//41
f 40//42 34//40 35//39
f 40//42 62//43 34//40
f 40//44 63//10 62//12
f 88//45 94//24 89//23
f 88//46 58//47 94//48
f 31//49 32//50 53//51
f 56//52 51//53 55//54
f 56//55 55//56 60//57
f 52//58 53//59 32//60
f 52//61 51//62 56//63
f 33//64 27//8 50//7
f 33//64 50//7 51//62
f 33//65 52//58 32//60
f 33//64 51//62 52//61
f 28//66 16//67 27//68
f 28//69 27//8 33//64
f 28//70 33//65 32//60
f 13//71 20//72 25//73
f 13//74 9//75 8//76
f 13//74 14//77 9//75
f 26//78 25//79 20//80
f 67//81 71//82 66//83
f 67//84 66//85 63//86
f 67//84 63//86 68//87
f 24//88 23//89 14//90
f 24//91 13//92 25//93
f 24//88 14//90 13//94
f 10//95 9//16 14//96
f 10//95 5//17 9//16
f 22//97 35//98 21//99
f 22//100 21//101 15//102
f 22//103 14//104 23//105
f 22//103 10//106 14//104
f 22//100 15//102 10//107
f 39//108 40//109 35//110
f 39//111 38//112 64//113
f 39//114 64//115 63//116
f 39//114 63//116 40//117
f 59//118 88//119 60//120
f 59//121 58//122 88//123
f 59//118 60//120 55//124
f 59//118 55//124 54//125
f 59//121 54//126 58//122
f 7//127 2//128 1//129
f 7//130 1//131 6//132
f 7//127 8//76 2//128
f 7//127 13//74 8//76
f 29//133 19//134 18//135
f 29//136 18//137 28//138
f 29//139 28//70 32//60
f 43//140 26//141 42//142
f 61//143 56//144 60//145
f 41//146 42//147 26//148
f 37//149 38//150 39//151
f 37//152 24//91 25//93
f 37//153 25//154 26//155
f 37//156 43//157 38//158
f 37//153 26//155 43//159
f 17//160 18//161 6//162
f 17//160 6//162 11//163
f 17//164 11//165 16//166
f 17//167 16//168 28//169
f 17//170 28//171 18//172
f 12//173 6//174 18//175
f 12//173 7//176 6//174
f 12//177 18//178 19//179
f 12//180 13//71 7//181
f 12//182 19//183 20//184
f 12//180 20//72 13//71
f 30//185 32//50 31//49
f 30//186 29//139 32//60
f 30//185 31//49 41//187
f 30//188 20//189 19//190
f 30//188 19//190 29//191
f 30//192 26//78 20//80
f 30//192 41//193 26//78
f 57//194 56//195 61//196
f 57//197 61//198 47//199
f 57//197 47//199 53//200
f 57//201 53//202 52//203
f 57//204 52//205 56//206
f 90//207 96//208 97//209
f 90//210 84//211 89//212
f 90//210 89//212 95//213
f 90//214 95//215 96//216
f 92//217 98//218 99//219
f 92//217 99//219 93//220
f 72//221 71//222 67//223
f 72//224 67//225 68//32
f 72//226 93//227 71//228
f 74//229 47//230 61//231
f 44//232 53//233 47//234
f 44//235 31//236 53//237
f 44//235 41//238 31//236
f 36//239 39//108 35//110
f 36//239 37//240 39//108
f 36//241 22//103 23//105
f 36//242 35//243 22//244
f 36//245 23//89 24//88
f 36//245 24//88 37//246
f 91//247 97//248 98//218
f 91//247 98//218 92//217
f 91//249 90//207 97//209
f 82//250 93//251 72//252
f 82//253 92//254 93//255
f 73//256 49//257 75//258
f 73//259 72//224 68//32
f 69//260 68//32 64//34
f 69//260 73//259 68//32
f 69//261 49//262 73//263
f 65//264 49//262 69//261
f 65//265 64//266 38//267
f 65//268 69//260 64//34
f 76//269 88//270 89//271
f 76//272 60//273 88//274
f 45//275 41//146 44//276
f 45//277 43//140 42//142
f 45//275 42//147 41//146
f 86//278 91//279 92//280
f 81//281 82//282 72//283
f 81//284 72//285 73//286
f 81//287 73//256 75//258
f 81//288 75//289 80//290
f 81//288 80//290 86//291
f 46//292 43//293 45//294
f 46//292 38//295 43//293
f 46//296 65//297 38//298
f 46//299 49//262 65//264
f 48//300 75//301 49//262
f 48//302 44//303 47//304
f 48//302 45//305 44//303
f 48//300 49//262 46//299
f 48//302 46//306 45//305
f 48//307 47//230 74//229
f 48//308 74//309 75//310
f 79//311 74//312 78//313
f 79//311 75//314 74//312
f 79//315 80//316 75//317
f 79//318 78//319 84//320
f 83//321 84//322 78//323
f 83//321 89//324 84//322
f 83//325 76//269 89//271
f 77//326 78//327 74//328
f 77//326 74//328 61//143
f 77//329 76//272 83//330
f 77//326 83//331 78//327
f 77//326 61//143 60//145
f 77//329 60//273 76//272
f 87//332 82//333 81//334
f 87//335 81//336 86//278
f 87//332 92//337 82//333
f 87//335 86//278 92//280
f 85//338 86//339 80//340
f 85//341 80//342 79//343
f 85//344 79//318 84//320
f 85//345 91//346 86//347
f 85//345 84//348 90//349
f 85//345 90//349 91//346
